<?xml version="1.0" encoding="UTF-8"?>
<svg version="1.1" viewBox="0 0 958 958" width="1280" height="1280" xmlns="http://www.w3.org/2000/svg">
<path transform="translate(0)" d="m0 0h958v958h-958z"/>
<path transform="translate(480,246)" d="m0 0h17l29 1 34 3 43 6 62 12 31 7 15 4 27 9 10 4v2l-12 2-64 7-24 3-46 5-50 6-44 5-71 8-63 7h-12l-1-1-1-15-1-2h-8l-9 1-2-1 2-4 14-13 11-9 12-9 18-12 26-13 14-5 19-5z"/>
<path transform="translate(472,238)" d="m0 0h57l30 2 48 6 1 1 21 3 24 5 26 5 19 5 21 5 7 2 23 7 40 10 11 2h57l7 5-1 4-5 6-7 1-75 3-60 5-32 3-39 3-18 2-25 2-26 3-54 5-42 5-29 4-35 4-32 2h-36l-23-2-47-6-25-2h-26l-24 3-19 4-27 9-27 12-18 11-13 11h-2l-2 4-5 5-9 10-3 3 2-5 7-12 7-9 9-10 15-12 14-9 11-6 15-7 25-7 25-5 21-2h12l31 2 8 1h17l9-2 15-5 11-7 13-11 16-16h2l2-4 11-9 3-3 5-1v-2l15-9 19-9 21-7 17-4zm8 8-24 3-23 6-23 10-10 6-9 5-20 14-11 9-11 10-8 7-1 3 5 1 6-1h8l1 2 1 15 1 1h12l159-18 54-6 15-2 46-5 69-8 28-3 3-1v-2l-16-6-27-9-31-7-55-11-30-5-29-4-34-3-29-1z" fill="#F40402"/>
<path transform="translate(245,381)" d="m0 0h7l10 3 5 5 3 5v10l-4 11-9 13-8 10-6 2-9-1-1-5 8-11 12-18 2-4v-8l-1-2-10 1-16 8-15 11-10 9-9 9-8 14-3 9v12l3 6 6 5 5 2h14l15-4 14-7 9-8 4-4 7 1-1 5-12 10-11 7-13 6-16 5-7 1h-10l-16-4-10-6-6-7-1-4v-13l5-14 7-11 11-12 5-6-20 3h-14l-15-3-5-4v-5l4-3 7-1 3 1-1 4h-2v2l22-2 23-5 48-16z" fill="#F9F9F9"/>
<path transform="translate(75,519)" d="m0 0h805v3h-804z" fill="#FDFDFD"/>
<path transform="translate(759,357)" d="m0 0h17l16 5 16 9 10 8 11 11 9 13 4 10-1 3-12-13-1-3-4-2-9-8-10-6-16-6-16-3h-11l-10 1-9 3-15 6-6 4h-2v2l-6 4-13 13-7 8h-1l1-7 7-13 11-12 7-6 5-5 17-10 13-5z" fill="#F40402"/>
<path transform="translate(569,366)" d="m0 0h5l1 4-17 28-12 25 14-11 14-9 7-1 3 2v6l-5 12-1 10 2 5v3l-4 2-9-1-6-5-1-4v-10l-8 7-7 7-7 8-7 2-5-3v-9l6-18 8-16 6-10 7-9 9-10z" fill="#F9F9F9"/>
<path transform="translate(377,387)" d="m0 0 5 1 1 4-5 8 8-1h14l8 2-1 4-1 1h-23l-10 1-10 18-8 20v9l1 2h6l13-7 15-13 2-1h6l-1 4-11 10-13 9-12 5-4 1h-9l-7-3-3-3-1-3v-9l4-12 8-18 3-6-28 8-5-1 1-3 18-6 19-5h2l2-4 5-6 8-5z" fill="#F8F8F8"/>
<path transform="translate(300,426)" d="m0 0h12l3 3v6h2v6l-7 13-9 10-7 4-4 1h-7l-6-3-2-2-1-6 2-8 5-10 9-9z" fill="#F8F8F8"/>
<path transform="translate(639,396)" d="m0 0 9 1 3 3-1 6-4 5-12 8-12 5 1 5h8l16-8 10-8h6l1 2-5 6-16 11-13 5-4 1h-8l-7-2-4-4v-10l5-9 6-7 11-7z" fill="#F7F7F7"/>
<path transform="translate(488,410)" d="m0 0h11l3 3-1 6-7 8-3 2-4-1 2-4 4-5v-2l-7 4-7 8-2 4v9l3 1 13-4 11-7 6-4 5 1-2 4-11 9-16 8-4 1h-14l-6-3-3-7 2-10 6-8 8-7 10-5z" fill="#F7F7F7"/>
<path transform="translate(432,415)" d="m0 0h11l5 3v6l-2 2h-6l1-6-6 3-3 4v9l1 5v8l-5 5-6 2h-14l-8-3-3-2 1-4 5 1 6 2h7l-2-14 1-9 7-8z" fill="#F7F7F7"/>
<path transform="translate(471,560)" d="m0 0 8 1 3 3v7l-2 2h-3l7 11v2l-4-1-6-9-3-1-1 11h-3v-25z" fill="#E2E2E2"/>
<path transform="translate(306,432)" d="m0 0h2l1 4-3 12-6 9-6 5h-2v-10l4-9 6-8h2v-2z"/>
<path transform="translate(205,560)" d="m0 0 3 2 2 16 3-9 4 1 2 6h1l2-15h3l-1 12-2 13h-3l-4-12-4 12-4-1-3-24z" fill="#E1E1E1"/>
<path transform="translate(329,560)" d="m0 0 4 2 7 21v3h-3l-3-8-8-1-3 9-3-1 8-24z" fill="#EBEBEB"/>
<path transform="translate(676,560)" d="m0 0 3 1 8 23v2l-4-1-2-8h-9l-2 9h-3l2-9 5-16z" fill="#E9E9E9"/>
<path transform="translate(504,560)" d="m0 0 2 1 8 25h-4l-2-9-8 1-3 8h-3l2-9 5-16z" fill="#E7E7E7"/>
<path transform="translate(294,560)" d="m0 0 4 1 4 9 4-9h4v25h-3l-1-18-3 7h-3l-2-5v-3l-1 5v13l-4 1v-25z" fill="#E7E7E7"/>
<path transform="translate(367,560)" d="m0 0v3l-6 7 1 4 7 11-4 1-7-11-3 1-1 10-3-1v-23l3-1 1 9 7-6z" fill="#E2E2E2"/>
<path transform="translate(684,453)" d="m0 0h8l3 3-1 6-2 1 4 10-3-1-4-6v-2h-3v8h-3v-18z" fill="#CBCBCB"/>
<path transform="translate(242,560)" d="m0 0 9 1v2h-11v8h10v3h-10v9h10l1 3h-14v-25z" fill="#EDEDED"/>
<path transform="translate(645,560)" d="m0 0h8l2 1v2h-10v8h9v3h-9v9h9l1 3h-13l-1-5v-16l1-4z" fill="#ddd"/>
<path transform="translate(382,560)" d="m0 0 13 1v2h-11v8h10v3h-10v9h10l1 3h-14v-25z" fill="#ddd"/>
<path transform="translate(557,560)" d="m0 0h10l1 3h-10v8h10l-1 3h-9v9h10v3h-13v-25z" fill="#E3E3E3"/>
<path transform="translate(864,453)" d="m0 0h8l3 2 1 4-3 4 4 10-4-2-4-6-3-1v9h-2z" fill="#F0F0F0"/>
<path transform="translate(540,560)" d="m0 0 2 1-3 11-4 13-5 1-8-25h4l6 19 7-19z" fill="#E5E5E5"/>
<path transform="translate(704,560)" d="m0 0h6l2 1v2l-10 1 1 5 9 5 1 2v6l-4 4h-9l-1-3h8l2-1v-5l-10-7v-7z" fill="#eee"/>
<path transform="translate(724,453)" d="m0 0 3 1 5 11 1-12h2v20l-3-1-5-11-1 11h-3v-18z" fill="#F7F7F7"/>
<path transform="translate(741,560)" d="m0 0h2l-1 5-5 9-1 12h-3l-1-11-7-14h4l4 8v2l3-3z" fill="#EDEDED"/>
<path transform="translate(788,453)" d="m0 0h3l6 17v3l-3-1-1-6h-7l-2 7-2-1 3-11z" fill="#E7E7E7"/>
<path transform="translate(848,453)" d="m0 0h3l6 19h-3l-1-6h-7l-2 7h-2l2-9z" fill="#B2B2B2"/>
<path transform="translate(442,560)" d="m0 0h12l1 3-7 1-1 22h-3v-23h-8v-2z" fill="#E0E0E0"/>
<path transform="translate(585,560)" d="m0 0 2 1v22h10l1 3h-14v-25z" fill="#DBDBDB"/>
<path transform="translate(704,453)" d="m0 0h11l-1 2h-7v6h7v2h-7v8h8l-1 2h-9l-1-1z" fill="#FAFAFA"/>
<path transform="translate(640,402)" d="m0 0h3l-1 4-8 7-7 4-3-1 9-10z"/>
<path transform="translate(306,561)" d="m0 0h4v25h-3l-1-18-3 1 2-7z" fill="#FAFAFA"/>
<path transform="translate(205,560)" d="m0 0 3 2 2 16 3-3-1 7-1 4-4-1-3-24z" fill="#E7E7E7"/>
<path transform="translate(827,453)" d="m0 0h8v2l-7 1-2 3v8l2 3h7l-1 3h-7l-4-5v-11z" fill="#F2F2F2"/>
<path transform="translate(692,454)" d="m0 0h2l1 6-3 3 4 10-3-1-4-6v-2h-3v8l-2 1v-12h8z" fill="#E8E8E8"/>
<path transform="translate(471,563)" d="m0 0 7 1 1 1v5l-3 2h-5l-1-1v-7z"/>
<path transform="translate(742,453)" d="m0 0h14v2l-5 1-1 17-2-1v-17h-6z" fill="#F7F7F7"/>
<path transform="translate(788,453)" d="m0 0h3l3 9h-2v2h-5l-2-1z" fill="#939393"/>
<path transform="translate(222,561)" d="m0 0h3l-1 12-1 8-4-2 2-13z" fill="#E0E0E0"/>
<path transform="translate(704,453)" d="m0 0h1l1 12h1v6h8l-1 2h-9l-1-1z" fill="#ADADAD"/>
<path transform="translate(866,455)" d="m0 0h6l1 5-2 2-5-1z"/>
<path transform="translate(723,454)" d="m0 0h1l2 7v11h-3z" fill="#B8B8B8"/>
<path transform="translate(686,455)" d="m0 0h5l2 4-3 3h-4z"/>
<path transform="translate(724,453)" d="m0 0 3 1 5 12h-3l-2-5h-2l-1-2z" fill="#E9E9E9"/>
<path transform="translate(676,565)" d="m0 0 2 1 2 8h-6z"/>
<path transform="translate(330,565)" d="m0 0 2 3 1 6h-6z"/>
<path transform="translate(848,453)" d="m0 0h3l3 10h-3l-2-5h-2z" fill="#EDEDED"/>
<path transform="translate(503,565)" d="m0 0 2 2 2 7h-6z"/>
<path transform="translate(827,453)" d="m0 0h8v2l-7 1-3 3h-2l2-5z" fill="#DADADA"/>
<path transform="translate(217,578)" d="m0 0h2v2l3-1v7h-3l-2-5z" fill="#FAFAFA"/>
<path transform="translate(684,461)" d="m0 0 4 2-1 1-1 8-2 1z" fill="#F9F9F9"/>
</svg>
