<?xml version="1.0" encoding="UTF-8"?>
<svg version="1.1" viewBox="0 0 2048 601" width="500" height="151" xmlns="http://www.w3.org/2000/svg">
    <path transform="translate(0)" d="m0 0h2048v601h-2048z" />
    <path transform="translate(1020,60)"
        d="m0 0h64l54 3 36 3 36 4 45 6 87 15 76 15 52 11 36 8 24 7 52 17 23 8 6 4-3 3-34 5-302 34-356 40-82 9-55 6h-17l-1-10-1-25-1-5-47 2 1-4 16-15 15-14 14-11 9-8 16-12 19-14 18-12 22-14 18-10 25-13 26-11 33-11 24-5 27-4z" />
    <path transform="translate(1041,41)"
        d="m0 0h46l54 2 60 5 44 5 54 8 52 9 46 9 58 12 50 12 31 8 111 31 35 9 23 5 18 2h49l36-1h32l8 4 8 7 1 6-8 10-5 4-14 3-48 2-103 3-54 4-28 3-235 20-97 9-140 14-53 6-38 5-53 6-31 4-48 6-40 4-57 3h-49l-40-2-43-4-82-10-42-4-14-1h-68l-24 2-23 3-34 7-30 8-32 11-24 10-34 16-23 13-19 12-12 9-16 13-11 11-8 7-11 12-12 16-10 14-4 2 3-9 12-19 14-20 11-15 11-13 12-12 14-11 10-8 16-12 17-11 21-12 16-8 21-9 33-11 28-7 40-8 37-5 16-1h37l38 2 31 3 12 1h37l17-3 20-6 16-7 14-9 13-10 14-12 14-14 8-7 19-19 8-7 13-13 11-9 18-13 17-11 24-13 27-13 26-10 26-8 25-6 27-5 27-3zm-21 19-34 3-29 5-23 6-28 10-27 12-27 14-23 14-18 12-20 14-26 20-12 10-11 9-16 15-14 13v3l38-2h9l1 5 1 25 1 10h17l687-77 91-10 46-6 7-2v-3l-10-5-36-12-50-16-34-8-77-16-72-14-76-13-45-6-36-4-36-3-54-3z"
        fill="#EF190D" />
    <path transform="translate(516,353)"
        d="m0 0 15 1 12 4 11 7 7 9 4 13v8l-3 15-8 18-7 11-10 14-13 17-4 5-8 4-4 1h-16l-6-3-2-2 1-8 7-11 9-10 10-15 8-11 10-16 5-13v-10l-3-6-3-2h-11l-16 5-16 8-16 10-17 12-16 12-13 12-8 7-12 13-11 15-9 16-6 14-4 15v14l3 12 7 11 11 8 12 5 7 1h12l18-2 19-5 17-7 17-9 13-10 18-18 8-1 9 4-1 5-13 13-17 13-15 10-22 12-19 8-23 7-15 3-9 1h-19l-18-3-18-6-17-9-11-10-6-10-3-12v-16l3-16 5-13 8-16 14-20 12-14 7-7 7-8 11-11-14 4-31 5-9 1h-22l-23-3-15-5-8-7-1-2v-7l5-5 9-4 3-1h7l7 3v4l-9 6 2 1h29l30-5 36-8 33-10 44-16 25-8 22-5z"
        fill="#FEFEFE" />
    <path transform="translate(1216,321)"
        d="m0 0h11l2 4-9 17-24 40-8 14-10 19-13 30 4-2 11-10 20-15 15-10 14-8 4-1h8l7 3 2 4-3 9-10 26-2 7-1 12 2 9 4 10-3 3-7 3h-10l-10-3-10-9-3-10v-13l2-12-11 9-21 21-9 11-8 9-7 4-3 1h-8l-7-3-3-4v-11l5-21 10-27 12-25 10-18 10-15 12-16 11-12 7-8 11-9z"
        fill="#FEFEFE" />
    <path transform="translate(1638,301)"
        d="m0 0h17l16 2 20 6 16 7 19 10 15 10 14 11 7 6 7 8 8 8 12 16 10 15 12 22 2 5v5l-4-2-11-14-8-8-7-8-17-17-14-11-15-9-16-8-19-8-18-5-19-3-13-1h-12l-22 2-16 4-20 7-20 10-18 12-13 10-14 12-11 11-9 11-11 14-3 1-1-3 6-14 13-23 7-10 9-11 12-13 12-11 14-11 15-10 22-12 15-6 22-6z"
        fill="#EF190D" />
    <path transform="translate(799,366)"
        d="m0 0 9 1 2 1 1 5-5 10-8 11 6-1 16-1h20l19 2 6 3 1 4-6 5-2 1h-63l-6 1-13 22-10 19-10 23-7 20-1 5v10l3 9 2 1h9l16-7 15-9 17-14 12-11 9-6h10l3 1-1 5-12 12-11 9-13 10-14 9-19 10-14 5-13 2-15-1-10-4-8-7-4-10v-12l4-16 8-21 9-20 9-17 7-11-46 12-21 6h-7l-2-5 4-3 30-10 39-10 11-3 5-5 10-11 7-8 10-7 7-3z"
        fill="#FEFEFE" />
    <path transform="translate(637,450)"
        d="m0 0h13l8 3 3 3 2 12v2l5 2v6l-8 18-10 16-9 11-9 9-11 7-13 4h-15l-10-4-5-5-3-5-1-4v-9l5-16 6-12 8-11 9-10 10-7 14-7z"
        fill="#FEFEFE" />
    <path transform="translate(1373,385)"
        d="m0 0 10 1 8 4 3 4v8l-6 9-10 10-18 11-16 8-14 6-1 2 3 9 5 3 9-1 17-6 15-8 17-12 10-8 7-4 8 1 3 2-1 4-11 11-17 13-16 10-15 7-15 5-10 2h-18l-11-4-8-7-2-4-1-9 2-11 8-16 9-11 8-8 13-9 16-8 12-3z"
        fill="#FEFEFE" />
    <path transform="translate(1043,416)"
        d="m0 0h18l8 4 1 2v8l-4 8-9 10-7 6-7 3-5-1-1-5 11-11 6-8v-2l-6 1-12 7-13 13-7 11-3 9v9l3 8h8l17-5 17-8 16-10 11-8 4-2 9 1 1 4-10 10-14 11-16 10-20 9-15 4-5 1h-20l-11-4-8-7-3-8v-12l4-12 6-10 11-12 9-8 15-9 16-6z"
        fill="#FEFEFE" />
    <path transform="translate(919,427)"
        d="m0 0h22l7 3 6 6-1 7-4 6-7 3-6-1-1-3 5-7-1-4-8 1-10 7-4 6-2 10 4 23 1 11-2 7-7 7-12 5-14 2h-13l-15-3-11-6-6-5 1-4 4-2 6 1 8 4 8 2h12l3-1v-12l-3-15v-17l6-12 7-7 14-8z"
        fill="#FEFEFE" />
    <path transform="translate(1041,41)"
        d="m0 0h46l54 2 60 5 44 5 54 8 52 9 46 9 58 12 50 12v1l-11-1-19-5-40-9-21-4-23-5-63-12-78-12-53-6-37-3-7-1-52-2h-71l-38 2-28 5-30 7-6 2-23 7-10 4-7 3h-3v2l-8 2-22 11-4 3-7 3-11 7-6 2v2l-3 1 14-1-1 4-9 6-14 9-3 3-1 2h-2v3l-5 1v3l8-3 10-7h2v-2l9-5 12-7 3 1-26 16-30 21-26 20-12 10-11 9-16 15-13 12-1 3 6-1 32-2h9l2 6 1 35 28-2 115-13 56-6 87-10 98-11h10v1l-59 7-63 7-42 5-71 8-20 2-99 11-34 4-3 2-4-1-1-2-1-30-1-11-19 1-26 2-9 1v-3l11-9 3-3h2l2-4 9-7 14-13 8-7 5-5h3l1-3 4-1v-2l10-7 3-3 7-6h-2v-3l-1 2-11 4-6-1v2l-8 6-18 18-2-1 24-24 8-7 13-13 11-9 18-13 17-11 24-13 27-13 26-10 26-8 25-6 27-5 27-3z"
        fill="#D81911" />
    <path transform="translate(1711,319)"
        d="m0 0 6 2 17 10 12 9 10 8 6 5 7 8 8 8 12 16 10 15 12 22 2 5v5l-4-2-11-14-8-8-7-8-17-17-14-11-15-9-16-8-4-3 5 1 16 8 11 6 7 5v-2-3h-2l-3-3-2-1v-2l-7-1-5-4-22-14v-2h-5l-6-4-2-3 1-5h8l10 4 5 1 1 2 8 2 1 3 4 2 7 4h2l5 6 1-1-5-5-16-12-13-8-10-6z"
        fill="#D81911" />
    <path transform="translate(272,288)"
        d="m0 0h2l-1 3-6 3-8 5h-2v2l-5 4-3 2v2l3-1 1 2-13 10-3 3-1 2h5l1 1 22-11 2 1-23 13-19 12-12 9-16 13-11 11-8 7-11 12-12 16-10 14-4 2 3-9 12-19 14-20 11-15 11-13 12-12 14-11 10-8 16-12 17-11z"
        fill="#D81911" />
    <path transform="translate(1566,343)"
        d="m0 0h2l-1 3-5 4-6 3-4 4-6 4h-2l-2 9 7-4 5-3 7-4 3 1-19 12-14 11-14 12-11 11-9 11-11 14-3 1-1-3 6-14 13-23 7-10 9-11 10-11 1 2 6-2 5-1 1-2 10-5 9-5z"
        fill="#D81911" />
    <path transform="translate(643,463)" d="m0 0h5l1 9-5 23-6 12-8 10-11 11-3 2-4-1-1-6v-10l4-13 7-14 7-9 8-9z" />
    <path transform="translate(1860,509)" d="m0 0h16l5 3 3 5v6l-4 6-4 3 2 4 8 12 2 4-7-1-7-9-6-8-3-2-1 19-4 1-2-1v-40z"
        fill="#FEFEFE" />
    <path transform="translate(1466,509)" d="m0 0h16l5 2 3 4v10l-4 5-4 1 4 8 8 11v2l-6-1-6-7-5-9-6-3v19l-5 1-1-1v-41z"
        fill="#FEFEFE" />
    <path transform="translate(1043,51)"
        d="m0 0 7 1 1 2 6-1 5 3-3 2 7-3 8 2 13 1 22 1 8 1h15v1l35 3 37 4 30 4v1l-16-1-34-4-31-3-48-3-21-1h-64l-34 3-29 5-23 6-28 10-27 12-27 14-5 2 1-3 40-20 27-11 28-9 16-4 21-4 33-4 14-1 2-2 6 1 10 1v-2l-3-1z"
        fill="#D81911" />
    <path transform="translate(1500,110)"
        d="m0 0h5l4 2 1-2 4 1v2h10l6 2v2h7l12 3 12 4 11 2 3 2 10 2 2 2 10 3 5 6-4 2-12-2-42-14-22-7-5-1-5-2v-2l-10-1z"
        fill="#D81912" />
    <path transform="translate(1553,509)" d="m0 0h5l8 16 7 13v-29h5l1 1v41l-4 1-3-1-9-20-4-9-1 29-5 1-1-1v-27z"
        fill="#FEFEFE" />
    <path transform="translate(1826,508)" d="m0 0 4 1 12 36 1 6-3 1-3-2-4-11-1-1h-11l-5 12-2 2-4-1 9-29 5-12z"
        fill="#FEFEFE" />
    <path transform="translate(1696,508)" d="m0 0 4 2 7 20 6 18v4l-5-1-4-10-1-3h-13l-4 12-2 2h-4l3-12 9-28z"
        fill="#FEFEFE" />
    <path transform="translate(485,255)"
        d="m0 0h19l44 2 46 5 56 7 23 3v1h-9l-73-9-42-4-14-1h-68l-24 2-23 3-34 7-26 7-4-1 28-8 39-8 32-4 22-1z"
        fill="#D81912" />
    <path transform="translate(1371,399)" d="m0 0h7l1 2-4 6-7 7-15 10-15 8h-3l1-4 9-10 10-10 11-7z" />
    <path transform="translate(1511,509)" d="m0 0h21l1 5h-16l-1 12h15l1 5h-16v16h16l1 5h-21l-1-1-1-24z"
        fill="#FEFEFE" />
    <path transform="translate(1785,507)"
        d="m0 0 8 1 3 4v4l-6-2h-9l-4 4-2 4v18l4 6 5 2 6-1 4-2h3l-1 5-6 3h-10l-6-4-4-5-2-6v-15l5-10 5-4z"
        fill="#FEFEFE" />
    <path transform="translate(1593,509)" d="m0 0h32v4l-2 1-11 1v36l-5 1-2-1v-36l-12-2z" fill="#FEFEFE" />
    <path transform="translate(804,263)" d="m0 0h30l2 1v3l-13 3h-43v-1l10-1 1-1-2-2 2-1z" fill="#D81912" />
    <path transform="translate(1524,130)" d="m0 0 7 1 55 18 23 8 6 5v2l-25 4-24 3h-9v-1l46-6 7-2-3-3-13-5-43-14-27-9z"
        fill="#D81912" />
    <path transform="translate(476,239)" d="m0 0h12l4 1 8 1 7-1 1 2-14 2-4-1-1 3h-11v2l-9-2-7-1 1-4z" fill="#D81911" />
    <path transform="translate(1471,513)" d="m0 0h8l5 3 1 7-5 5-9-1-1-1v-12z" />
    <path transform="translate(1866,513)" d="m0 0h7l5 5-1 7-3 3h-7l-3-1-1-8 1-5z" />
    <path transform="translate(1770,365)"
        d="m0 0 6 5 5 5 9 11 10 16 10 18 2 4v5l-3-2-3-5-2-6-2-3v-3l-3-1-4-9-1-4h-2l-7-11-8-10-2-4h-2l-3-4z"
        fill="#E9190E" />
    <path transform="translate(1315,210)" d="m0 0 2 2-10 4-10 1h-13l-2-2 6-2z" fill="#D81912" />
    <path transform="translate(1142,228)" d="m0 0h18v3l-17 3-10-1 2-4z" fill="#D81912" />
    <path transform="translate(1697,517)" d="m0 0 2 2 3 14h-11l3-11z" />
    <path transform="translate(1826,518)" d="m0 0 3 1 3 9v5h-10l1-7z" />
    <path transform="translate(735,179)" d="m0 0h2l-1 3-8 7-9 9-7 6-2-1 17-16z" fill="#D81912" />
    <path transform="translate(755,261)" d="m0 0 3 1 2 5 1 2h-7l-4-4z" fill="#D81912" />
    <path transform="translate(1079,236)" d="m0 0 5 1v2l-2 1h-14l3-3z" fill="#D81912" />
    <path transform="translate(145,413)" d="m0 0 3 1-1 5-4 5-3 1 3-9z" fill="#DF1910" />
    <path transform="translate(1462,99)" d="m0 0h5l-1 5h-6l-5-2 2-2z" fill="#D81912" />
    <path transform="translate(1177,225)" d="m0 0h8l3 2-3 1h-8z" fill="#D81912" />
</svg>